<svg id="Слой_1" data-name="Слой 1" xmlns="http://www.w3.org/2000/svg" viewBox="0 0 256.38 256.57">
  <defs>
    <style>
      .cls-1 {
        fill: none;
      }
    </style>
  </defs>
  <title>ipi_logo_1_vectorxxxhdpi</title>
  <g>
    <path class="cls-1" d="M132.8,0c2,.8,4.18.61,6.26,1.05a57,57,0,0,1,30.61,17.53A30,30,0,0,0,172,20.91c.88.74.92,1.27.06,2.1C168,27,164,31,159.89,35S152,43.06,148,47.08c-5.45,5.49-10.86,11-16.44,16.39-11.54,11.09-30,14.12-44.63,7.6C80.7,68.3,75.65,64.12,71,59.3c-3.77-3.91-7.61-7.76-11.46-11.58-.72-.72-.92-1.12-.09-1.94C69.84,35.45,80.1,25,90.6,14.77c7.24-7,16.05-11.33,25.91-13.54,2.34-.52,4.77-.47,7.06-1.23Z"/>
    <path class="cls-1" d="M0,125.68a56.16,56.16,0,0,1,3.89-17.89,55.37,55.37,0,0,1,13.23-19.6C23.48,82,29.67,75.61,36,69.4c3.87-3.78,7.69-7.63,11.39-11.58,1.05-1.12,1.56-1.13,2.67,0C56.23,64,62,70.57,68.75,76,81,85.85,95,89.75,110.62,87.8c13.52-1.68,24.59-8,34-17.68,12.08-12.36,24.39-24.51,36.61-36.73,1.88-1.88,1.42-1.74,3.22,0C190,39,195.49,44.49,201,50c.82.81.69,1.24,0,2Q188.4,64.46,175.85,77.05c-5.15,5.15-10.46,10.13-15.25,15.62a52,52,0,0,0-10.44,18.61c-4.47,14-3.43,27.78,2.6,41.12a49.75,49.75,0,0,0,10.93,15.74c12.52,11.87,24.43,24.36,36.74,36.45,1.61,1.57,1.79,1.11-.07,2.95-3.32,3.26-6.71,6.44-10.06,9.65-4.16,4-7.9,8.43-12,12.46-5.23,5.09-10,10.64-15.73,15.23a55,55,0,0,1-26.6,11.46c-.84.13-1.7.14-2.9.23a80,80,0,0,0,5.05-7.09,54.3,54.3,0,0,0,8.07-30.77c-.61-15.53-6.93-28.45-18-39.35-17.66-17.34-35-35-52.54-52.48a53.17,53.17,0,0,0-26.27-14,52.75,52.75,0,0,0-14.81-1.23A55.25,55.25,0,0,0,1.37,124.82,2.52,2.52,0,0,1,0,125.68Z"/>
    <path class="cls-1" d="M38.06,125.34c11.67.16,22.13,5,30.7,14.21,3.68,3.92,7.49,7.73,11.32,11.48,13.37,13.09,26.5,26.43,39.72,39.67,17.22,17.24,16.4,43.51,0,59.71-1.33,1.31-2.67,2.6-4,4a1.84,1.84,0,0,1-2,.64,57.18,57.18,0,0,1-19.89-10c-1-.78-.46-1.18.11-1.75,4-4,7.93-7.91,11.86-11.89a6.53,6.53,0,0,0,1.63-7.41,6.81,6.81,0,0,0-11.34-2.37c-4,3.93-8,7.88-11.85,11.9-1,1.06-1.54,1-2.54,0q-5.58-5.82-11.4-11.42c-1-1-.79-1.48,0-2.3q5.8-5.73,11.53-11.53c2.41-2.44,2.93-5.45,1.41-8.28a6.8,6.8,0,0,0-10.67-1.9c-4,3.79-7.79,7.74-11.67,11.63-1.49,1.49-1.47,1.5-3,0-3.72-3.73-7.42-7.49-11.2-11.16-.95-.92-.88-1.43,0-2.31q5-4.86,9.88-9.86c3-3,3-7.24.18-10s-7.11-2.6-10.14.44-6.39,6.34-9.52,9.58c-.92,1-1.52,1.06-2.49.07-3.79-3.89-7.61-7.76-11.5-11.55-.94-.91-.78-1.41,0-2.21,3.37-3.31,6.66-6.69,10-10a7.18,7.18,0,0,0,2-8.08,8.36,8.36,0,0,0-4.89-4,7.77,7.77,0,0,0-7.3,2.7c-3.11,3.26-6.36,6.37-9.51,9.59-.74.76-1.14.89-1.87-.06a56.29,56.29,0,0,1-9.43-18.16c-.17-.56-.44-1.09.14-1.65,4.56-4.51,8.88-9.27,14.63-12.4A44.62,44.62,0,0,1,38.06,125.34Z"/>
    <path class="cls-1" d="M211.7,60.85a10.37,10.37,0,0,1,.81.66c3.65,3.64,7.28,7.31,11,10.92.81.8.48,1.22-.14,1.84-5,5-10,10-15,15a53.61,53.61,0,0,0-15.22,29.26c-2.95,16.75,1,31.83,11.71,45.05,5.41,6.69,12,12.3,18,18.43,1.15,1.17,1.36,1.81.06,3-3.51,3.31-6.89,6.77-10.26,10.22-.77.78-1.18.78-1.94,0-6.91-7-13.87-13.91-20.8-20.86-5.8-5.82-11.69-11.56-17.35-17.51a41.59,41.59,0,0,1,.42-57.35c5.21-5.34,10.61-10.48,15.87-15.75,7.28-7.3,14.52-14.65,21.78-22C210.93,61.52,211.3,61.21,211.7,60.85Z"/>
    <path class="cls-1" d="M256.38,128.44c-.25,15.41-5.68,28.66-16.59,39.62-1.61,1.62-3.24,3.23-4.85,4.86-.49.49-.85,1-1.57.19-6-6.29-12.84-11.9-18.24-18.76-9.37-11.9-11.53-25.27-6.75-39.69a40.12,40.12,0,0,1,10-15.87L233.13,84c.49-.49.85-1.11,1.68-.28,5.1,5.08,10.26,10.09,13.87,16.42a54.7,54.7,0,0,1,7.41,23.15A51.14,51.14,0,0,1,256.38,128.44Z"/>
  </g>
</svg>
