<svg id="Слой_1" data-name="Слой 1" xmlns="http://www.w3.org/2000/svg" viewBox="0 0 256 337">
  <defs>
    <style>
      .cls-1 {
        fill: none;
      }
    </style>
  </defs>
  <title>ipi_logo_2_vectorxxxhdpi</title>
  <g>
    <path class="cls-1" d="M128.83,0c1.46.58,3,.44,4.53.76a41.22,41.22,0,0,1,22.1,12.65,20.5,20.5,0,0,0,1.67,1.69c.63.53.67.91,0,1.51-3,2.84-5.83,5.78-8.77,8.65s-5.73,5.83-8.61,8.73c-3.94,4-7.84,8-11.87,11.83-8.33,8-21.68,10.19-32.22,5.49a36.84,36.84,0,0,1-11.48-8.5c-2.72-2.82-5.49-5.6-8.28-8.36-.52-.52-.66-.81-.06-1.4,7.5-7.46,14.91-15,22.49-22.39A38.26,38.26,0,0,1,117.07.89a50.78,50.78,0,0,0,5.1-.89Z"/>
    <path class="cls-1" d="M46.7,337.41c0-4.09,0-8.18.06-12.27,0-.48-.31-1.19.51-1.34.58-.1,1.21-.17,1.31.76.06.56.41.24.69.09,2.77-1.42,5.23-1.08,6.72.92a5.33,5.33,0,0,1-.14,6.65c-1.66,1.94-4.18,2.17-6.8.63,0,0-.09,0-.29,0a23.58,23.58,0,0,0-.09,4.6Zm5.24-5.15a3.29,3.29,0,0,0,3.28-3.5,3.36,3.36,0,0,0-3.36-3.45,3.33,3.33,0,0,0-3.25,3.54A3.2,3.2,0,0,0,51.94,332.26Z"/>
    <path class="cls-1" d="M12.6,337.41c.43-3.36.08-6.74.19-10.11,0-.77,0-1.53,0-2.3,0-.51-.19-1.14.66-1.23s1.23.26,1.12,1.27c1.54-1,3-1.68,4.82-1.16a4.8,4.8,0,0,1,2.68,1.76,5.43,5.43,0,0,1-.23,6.67c-1.68,1.86-4.17,2-7.28.32v4.78ZM18,332.24a3.19,3.19,0,0,0,3.24-3.49,3.3,3.3,0,0,0-3.36-3.44,3.39,3.39,0,0,0-3.26,3.55A3.2,3.2,0,0,0,18,332.24Z"/>
    <path class="cls-1" d="M220.45,337.41c0-4.08,0-8.16,0-12.25,0-.51-.33-1.28.66-1.38.75-.07,1.35.05,1.1,1.3,1.55-1.09,3-1.65,4.6-1.25a5,5,0,0,1,2.87,1.74,5.55,5.55,0,0,1-.16,6.68c-1.66,1.9-4.12,2.11-7.08.51a22,22,0,0,0-.06,4.65Zm8.48-8.63a3.36,3.36,0,0,0-3.34-3.47,3.28,3.28,0,0,0-3.27,3.5,3.17,3.17,0,0,0,3.3,3.44A3.27,3.27,0,0,0,228.93,328.78Z"/>
    <path class="cls-1" d="M255.85,333.81c-1.59.23-2.07-.46-1.91-2a14.72,14.72,0,0,0-.34-4.7c-1.55,1.84-3.1,3.69-4.66,5.53a4.71,4.71,0,0,1-.88.95,1,1,0,0,1-1.73-.88c0-2.62,0-5.25,0-7.87,0-.76.2-1.09,1-1.07s.87.43.87,1.05c0,1.85,0,3.71,0,6.1,1.74-2.05,3.23-3.73,4.62-5.47.81-1,1.64-1.87,3-1.8Z"/>
    <path class="cls-1" d="M.15,323.64a65.8,65.8,0,0,0,7.82.11c1,0,1.44.2,1.4,1.34-.09,2.5,0,5,0,7.51,0,.6.11,1.19-.86,1.2s-1-.53-1-1.24c0-2,0-3.93,0-5.89,0-.85-.16-1.23-1.15-1.26C2,325.26,2,325.23,2,329.52a15.9,15.9,0,0,0,0,2.29c.23,1.54-.29,2.25-1.89,2Z"/>
    <path class="cls-1" d="M.15,301.34c2,.14,2,.14,2,2.89,0,1.65.4,2,1.84,1.67a1.44,1.44,0,0,0,.86-.68c.7-.9,1.48-1.76,2.09-2.72a2.14,2.14,0,0,1,2.63-1,24.86,24.86,0,0,1-3,4,1.27,1.27,0,0,0,0,2c1.13,1.3,2.13,2.72,3.22,4.12-1.83.5-1.83.5-2.8-.73-.72-.9-1.51-1.74-2.15-2.68s-1.46-.73-2.2-.6-.36,1-.47,1.52a2,2,0,0,0,0,.81c.32,1.69-.37,2.3-2,1.92Z"/>
    <path class="cls-1" d="M33,90.74A40.16,40.16,0,0,1,45.32,63.67C49.91,59.19,54.38,54.59,59,50.1c2.79-2.73,5.54-5.51,8.22-8.36.75-.81,1.13-.81,1.93,0,4.44,4.44,8.56,9.22,13.47,13.15a38.87,38.87,0,0,0,30.23,8.51c9.77-1.22,17.75-5.79,24.58-12.77C146.12,41.7,155,32.93,163.83,24.1c1.36-1.35,1-1.25,2.32,0,4,4,7.95,8,11.95,11.93.59.58.49.9,0,1.41Q169,46.54,159.91,55.63c-3.71,3.71-7.55,7.31-11,11.27a37.53,37.53,0,0,0-7.54,13.44A40.26,40.26,0,0,0,143.25,110a36.1,36.1,0,0,0,7.88,11.36c9.05,8.57,17.64,17.59,26.53,26.31,1.17,1.14,1.3.81,0,2.13-2.39,2.36-4.84,4.66-7.26,7-3,2.87-5.7,6.08-8.69,9-3.78,3.68-7.24,7.69-11.36,11a39.7,39.7,0,0,1-19.2,8.27c-.61.09-1.23.1-2.1.17a59.56,59.56,0,0,0,3.65-5.12,39.3,39.3,0,0,0,5.83-22.22c-.45-11.21-5-20.54-13-28.41C112.71,117,100.19,104.21,87.53,91.6a40,40,0,0,0-29.66-11A40,40,0,0,0,34,90.12,1.84,1.84,0,0,1,33,90.74Z"/>
    <path class="cls-1" d="M60.43,90.49c8.43.12,16,3.64,22.18,10.26,2.65,2.83,5.4,5.58,8.17,8.29,9.65,9.45,19.13,19.08,28.67,28.64a30.08,30.08,0,0,1,0,43.11c-1,.94-1.93,1.88-2.85,2.86a1.31,1.31,0,0,1-1.47.46,41.34,41.34,0,0,1-14.36-7.17c-.73-.57-.33-.86.08-1.27,2.86-2.86,5.73-5.71,8.56-8.59a4.68,4.68,0,0,0,1.18-5.34,4.91,4.91,0,0,0-8.18-1.71c-2.89,2.83-5.75,5.68-8.56,8.59-.74.76-1.11.72-1.83,0-2.69-2.8-5.44-5.56-8.24-8.25-.73-.7-.57-1.07,0-1.66q4.2-4.14,8.33-8.32a4.84,4.84,0,0,0,1-6,4.91,4.91,0,0,0-7.7-1.37c-2.87,2.73-5.62,5.59-8.42,8.39-1.08,1.08-1.07,1.08-2.15,0-2.69-2.69-5.36-5.4-8.09-8-.69-.66-.64-1,0-1.67q3.62-3.51,7.12-7.11a5,5,0,0,0,.13-7.23c-2-2-5.13-1.88-7.31.31s-4.62,4.58-6.88,6.92c-.66.69-1.1.77-1.79.05-2.74-2.81-5.5-5.6-8.31-8.34-.68-.66-.56-1,0-1.59,2.43-2.39,4.81-4.84,7.24-7.22a5.19,5.19,0,0,0,1.43-5.84A6,6,0,0,0,55,108.74a5.61,5.61,0,0,0-5.27,2c-2.24,2.35-4.59,4.59-6.86,6.92-.54.55-.83.64-1.35,0a40.71,40.71,0,0,1-6.81-13.11c-.13-.41-.32-.79.09-1.2,3.3-3.25,6.42-6.69,10.57-9A32.19,32.19,0,0,1,60.43,90.49Z"/>
    <path class="cls-1" d="M185.8,43.93c.22.18.42.32.59.48,2.63,2.63,5.25,5.28,7.91,7.88.59.58.35.88-.1,1.33-3.62,3.61-7.22,7.24-10.84,10.85a38.72,38.72,0,0,0-11,21.13,38.93,38.93,0,0,0,8.45,32.52c3.91,4.83,8.65,8.88,13,13.31.82.84,1,1.31,0,2.19-2.53,2.4-5,4.89-7.41,7.38-.55.57-.85.56-1.4,0-5-5-10-10-15-15.07-4.18-4.2-8.44-8.34-12.52-12.63a30,30,0,0,1,.3-41.41c3.76-3.85,7.66-7.56,11.46-11.37C174.53,55.26,179.75,50,185,44.67,185.24,44.42,185.51,44.19,185.8,43.93Z"/>
    <path class="cls-1" d="M218.06,92.73a40,40,0,0,1-12,28.6l-3.5,3.51c-.35.36-.61.69-1.13.14-4.37-4.54-9.28-8.59-13.17-13.54-6.77-8.6-8.33-18.25-4.87-28.66a29,29,0,0,1,7.22-11.46Q196,66,201.27,60.68c.36-.36.62-.8,1.22-.2,3.68,3.66,7.4,7.28,10,11.85A39.4,39.4,0,0,1,217.85,89C217.94,90.27,218.09,91.49,218.06,92.73Z"/>
    <path class="cls-1" d="M17.23,254.71,25.6,243c6.25-8.74,12.48-17.51,18.78-26.22,2.31-3.2,5.08-5.69,9.48-5.4,4.77.31,7.55,3.08,7.56,7.87,0,11.75,0,23.5,0,35.24q0,9.92,0,19.83c0,4.74-3.18,7.94-7.88,8a7.62,7.62,0,0,1-8-8q0-16.47,0-33v-2.13c-.72,0-.83.56-1.08.91q-12.7,17.69-25.38,35.39a25.47,25.47,0,0,1-4,4.59c-4.5,3.89-11.31,2.6-13.51-2.55A8,8,0,0,1,1,274.34q0-27.45,0-54.9c0-3.41,1.38-6,4.51-7.31a8.13,8.13,0,0,1,9.15,1.47,7.09,7.09,0,0,1,2.21,5.62q0,16.88,0,33.76v1.6Z"/>
    <path class="cls-1" d="M210.74,254.71c3-4.26,6.06-8.53,9.11-12.78,6.21-8.65,12.37-17.34,18.68-25.91,3.16-4.31,7.11-5.58,11.44-4.15a6.86,6.86,0,0,1,4.88,6,10.41,10.41,0,0,1,.07,1.48q0,27.45,0,54.92c0,3.25-1.24,5.79-4.19,7.2a8.14,8.14,0,0,1-8.95-.9,7.09,7.09,0,0,1-2.73-6c0-11.32,0-22.63,0-33.94v-2.07L233,246.94q-10.69,14.91-21.4,29.81c-2.23,3.09-4.85,5.64-9.09,5.58-4.7-.07-7.94-3.18-8-7.92,0-10.38,0-20.76,0-31.15,0-8.09,0-16.17,0-24.26a7.42,7.42,0,0,1,6.29-7.48,8,8,0,0,1,9.15,4.92,9.56,9.56,0,0,1,.4,3.4q0,16.89,0,33.77v.94Z"/>
    <path class="cls-1" d="M125.74,247.22q0-13.36,0-26.72c0-5,3-8.11,8-8.12q20,0,40,0c4.89,0,8,3.14,8,8q0,27,0,54.1a7.4,7.4,0,0,1-5.62,7.52,8.27,8.27,0,0,1-9.21-3.33,8.69,8.69,0,0,1-1.05-4.89c0-14.92,0-29.83,0-44.75,0-1.45-.3-1.93-1.85-1.9-6.93.09-13.87.07-20.81,0-1.32,0-1.61.39-1.61,1.65q.07,22.78,0,45.57a7.47,7.47,0,0,1-5,7.48,8.33,8.33,0,0,1-9.33-2.52,7.41,7.41,0,0,1-1.54-4.72Q125.76,260.91,125.74,247.22Z"/>
    <path class="cls-1" d="M101.12,258.76Q95.56,266.86,90,275c-1.57,2.31-3.13,4.63-5.68,6a10.42,10.42,0,0,1-8.7.79c-3.29-1.17-4.79-3.75-4.82-7.09-.07-10.43-.09-20.87,0-31.31,0-4.06,3.47-7,7.66-6.86a7.11,7.11,0,0,1,7.19,7.17c0,4.76,0,9.51,0,14.27v1.58l.31.11,5-7.33c2.44-3.55,4.82-7.15,7.33-10.65,3.24-4.52,8-6.19,12.72-4.63a7.17,7.17,0,0,1,5.2,7.11q0,15.57,0,31.15a7,7,0,0,1-7.24,7.05c-4.28,0-7.5-2.87-7.55-6.95-.06-5,0-9.95,0-14.92v-1.58Z"/>
    <path class="cls-1" d="M36.62,306.77a4.84,4.84,0,0,1-4.42,5c-1.42.19-1.92.72-1.7,2.08a7.23,7.23,0,0,1,0,1.14c0,.7-.43.78-1,.76s-1,0-.95-.76c0-.44,0-.88,0-1.31.16-1.22-.31-1.69-1.56-1.87a4.89,4.89,0,0,1-4.57-4.92c-.09-2.66,1.27-4.71,4-5.17,2-.32,2.38-1.2,2.1-2.89,0-.27,0-.55,0-.82-.05-.75.44-.74,1-.74s1,0,1,.75a5.61,5.61,0,0,1,0,.82c-.27,1.68.13,2.57,2.1,2.9C35.33,302.23,36.64,304.16,36.62,306.77Zm-8,0h0c0-.93,0-1.85,0-2.78,0-.46-.05-.83-.71-.82a4,4,0,0,0-3.4,2.42,3.47,3.47,0,0,0,1.65,4.21c1.95,1,2.44.77,2.45-1.39C28.6,307.83,28.59,307.29,28.59,306.74Zm1.92-.09h0c0,.93,0,1.86,0,2.79,0,.73.24.94,1,.84a3.72,3.72,0,0,0,3.25-3.17,3.35,3.35,0,0,0-2.51-3.74c-1.57-.51-1.71-.41-1.72,1.31Z"/>
    <path class="cls-1" d="M129.08,299.6c-.26,1.1.12,1.76,1.64,2,3.11.56,4.57,2.46,4.49,5.3-.08,2.68-1.74,4.49-4.76,4.94-1.13.16-1.5.6-1.38,1.67.06.48,0,1,0,1.47,0,.73-.44.75-1,.76s-1-.06-1-.76a10.81,10.81,0,0,1,0-1.14c.2-1.34-.26-1.89-1.7-2.07a4.77,4.77,0,0,1-4.37-4.55c-.2-2.78.88-4.82,3.49-5.34,2.28-.44,3-1.44,2.57-3.55-.13-.73.15-1.08,1-1.08s1,.36,1,1.09A11.53,11.53,0,0,0,129.08,299.6Zm0,7h0v2.95c0,.51.14.79.76.77a3.88,3.88,0,0,0,3.39-2.66,3.31,3.31,0,0,0-1.9-4.07c-1.89-.88-2.25-.67-2.26,1.37Zm-1.91,0c0-.81-.06-1.64,0-2.45.09-1.09-.42-1.13-1.28-.93a3.47,3.47,0,0,0-3,3.22,3.54,3.54,0,0,0,2.64,3.67c1.16.38,1.76.16,1.61-1.22A21.84,21.84,0,0,1,127.15,306.63Z"/>
    <path class="cls-1" d="M60.52,305.87v2.78c0,.8-.24,1.73,1.09,1.66.42,0,.52.31.52.67,0,.87,0,1.75,0,2.62,0,.71-.38.77-.93.79s-1-.17-.88-.82c.27-1.63-.67-1.73-1.91-1.68-1.8.07-3.6.06-5.4,0-1,0-1.56.24-1.4,1.37.1.66,0,1.14-.89,1.15s-1-.43-1-1.12,0-1.42,0-2.13c0-.39,0-.81.49-.89,1.43-.23,1.57-1.38,1.69-2.46.18-1.67.32-3.36.37-5.05,0-.92.22-1.4,1.29-1.36,2,.08,3.92.05,5.88,0,.78,0,1.08.24,1.05,1C60.48,303.58,60.52,304.73,60.52,305.87Zm-1.94.93c0-3.73,0-3.69-3.16-3.66-1,0-1.34.29-1.38,1.27a13.85,13.85,0,0,1-.45,4c-.61,1.77,0,1.88,1.53,1.83C58.58,310.17,58.58,310.23,58.58,306.8Z"/>
    <path class="cls-1" d="M152.44,310.85c0,1.31,0,2.55,0,3.78,0,.78-.15,1.2-1.08,1.18s-.92-.5-.92-1.16c0-3.94,0-7.87,0-11.8,0-.58-.32-1.33.79-1.45s1.08.56,1.1,1.29c3.36-1.89,6-1.68,7.8.54a5.84,5.84,0,0,1,.1,6.87C158.57,312.29,155.85,312.59,152.44,310.85Zm0-4.15a3.53,3.53,0,0,0,3.52,3.72,3.59,3.59,0,0,0,3.49-3.76,3.51,3.51,0,1,0-7,0Z"/>
    <path class="cls-1" d="M66.46,310.8c0,1.35,0,2.66,0,4,0,.6,0,1-.86,1s-1.06-.22-1-1c0-4.15,0-8.3,0-12.45,0-.45,0-.93.64-.89.44,0,1.11-.23,1.16.51s.24.74.86.37c2.62-1.57,5.38-1.16,7,1a5.67,5.67,0,0,1-.27,7.23c-1.75,1.87-4.66,2-7.15.35C66.82,310.83,66.75,310.84,66.46,310.8Zm0-4.11a3.53,3.53,0,1,0,7,0,3.52,3.52,0,1,0-7,0Z"/>
    <path class="cls-1" d="M182.25,324c-.87,1.77-2.8,3.11-2.67,4.74s1.71,2.95,2.64,4.42a2.56,2.56,0,0,1,.18.5,1.93,1.93,0,0,1-2.67-1c-.47-.86-1.11-1.63-1.61-2.47s-1.24-.65-1.89-.52-.32.81-.36,1.24a13,13,0,0,0,0,2c0,.67-.18,1-.93,1s-1-.31-.93-1a16.2,16.2,0,0,0,0-2c0-.43.29-1.11-.39-1.24s-1.41-.24-1.87.57-1,1.43-1.4,2.21a2.16,2.16,0,0,1-3,1.24c.85-1.29,1.62-2.57,2.51-3.77a1.75,1.75,0,0,0,0-2.45c-.82-1.06-1.48-2.25-2.25-3.45,1.22-.4,2-.16,2.49.93.43.88,1.09,1.64,1.57,2.49s1.11.64,1.73.58c.86-.08.49-.82.55-1.29s0-.88,0-1.31c.07-.67-.38-1.62,1-1.6s.79.9.86,1.51,0,1,0,1.47-.34,1.11.42,1.19,1.41.31,1.89-.52,1.15-1.73,1.65-2.63A1.76,1.76,0,0,1,182.25,324Z"/>
    <path class="cls-1" d="M170.14,308.41c1.26-2.07,2.49-4,3.6-6,.44-.79.93-1.17,1.81-1s.55,1.06.56,1.62c0,2.56,0,5.13,0,7.7,0,.63.08,1.18-.88,1.16s-.94-.46-.94-1.14A33.67,33.67,0,0,0,174,305l-2.91,4.79c-.83,1.35-1.21,1.36-2,0-.94-1.53-1.86-3.08-2.86-4.74-.73.92-.31,1.86-.38,2.71a25.48,25.48,0,0,0,0,3.27c0,.82-.41.84-1,.86s-.78-.33-.78-.91c0-2.78,0-5.57,0-8.35,0-.43-.28-1.1.47-1.19s1.39-.24,1.85.61c.94,1.72,2,3.4,3,5.09C169.56,307.54,169.81,307.89,170.14,308.41Z"/>
    <path class="cls-1" d="M228.48,309c2.12-2.5,3.94-4.57,5.66-6.71a1.81,1.81,0,0,1,2-.84c1,.25.49,1.1.5,1.65.06,2.51,0,5,0,7.53,0,.75.09,1.34-1,1.32s-1-.72-1-1.4v-5.79a31.6,31.6,0,0,0-3.61,4c-.81.88-1.55,1.83-2.29,2.77-.51.64-1.2.5-1.81.38s-.39-.81-.4-1.25c0-2.67,0-5.34,0-8,0-.8.16-1.2,1.07-1.19s.94.49.94,1.15C228.47,304.54,228.48,306.52,228.48,309Z"/>
    <path class="cls-1" d="M76.37,330.39c1.17-2,2.25-3.72,3.28-5.52.41-.72.86-1.27,1.78-1.08s.57,1,.58,1.61c0,2.29,0,4.58,0,6.87,0,.62.35,1.52-.88,1.51s-.74-.86-.76-1.41c0-1.61,0-3.22,0-4.84l-.46-.15c-.89,1.43-1.78,2.87-2.69,4.29s-1.12,1.36-2,0a35.91,35.91,0,0,0-3-4.47c0,1.83,0,3.65,0,5.48,0,.66,0,1.16-.91,1.13s-.82-.47-.82-1.07c0-2.57,0-5.13,0-7.69,0-.44-.26-1.09.48-1.2s1.37-.17,1.82.66c1,1.77,2,3.5,3,5.24A7.31,7.31,0,0,0,76.37,330.39Z"/>
    <path class="cls-1" d="M203.39,308.59c1.75-2.08,3.53-4.14,5.25-6.26.57-.71,1.23-1.17,2.08-.84s.38,1.16.39,1.75c0,2.52,0,5,0,7.54,0,.84-.19,1.14-1.08,1.16s-.85-.56-.85-1.17a31.22,31.22,0,0,0-.38-5.95c-1.52,1.82-3.05,3.63-4.58,5.45-.35.41-.72.82-1.06,1.25s-1.1.45-1.67.35c-.73-.12-.41-.78-.42-1.21,0-2.68,0-5.35,0-8,0-.61-.08-1.19.86-1.22s1.07.45,1.06,1.21c0,1.95,0,3.9,0,5.84Z"/>
    <path class="cls-1" d="M253.25,304.85c-1.72,2-3.48,4-5.13,6.09-.62.79-1.28,1.23-2.2.9s-.37-1.14-.38-1.72c-.06-2.51,0-5,0-7.53,0-.63,0-1.16.89-1.18s1,.51,1,1.23c0,1.47,0,2.95,0,4.42,0,.4-.17.95.41,1.1s.63-.34.86-.61c1.49-1.75,3-3.47,4.44-5.25.53-.66,1.1-1.1,1.94-.82s.45,1.11.46,1.67c.06,2.57,0,5.13,0,7.7,0,.7-.08,1.1-1,1.09s-1-.35-1-1.08c0-1.95,0-3.9,0-5.85Zm-5.59,3.53-.1-.12-.12.1.15.12Z"/>
    <path class="cls-1" d="M91.22,330.48c1.19-2,2.28-3.79,3.35-5.61.41-.69.82-1.32,1.76-1.08s.52,1.09.53,1.64c.06,2.4,0,4.81,0,7.21,0,.51.16,1.12-.74,1.15s-.92-.5-.92-1.16c0-1.74,0-3.48,0-5.42-1.07.65-1.3,1.7-1.87,2.49-.44.62-.78,1.31-1.19,1.95-.88,1.39-1.16,1.4-2,0s-1.73-2.89-2.71-4.53a4.84,4.84,0,0,0-.32,2.62c0,.87,0,1.75,0,2.62,0,.58.34,1.38-.8,1.4s-.89-.7-.89-1.33c0-2.46,0-4.91,0-7.37,0-.49-.26-1.19.59-1.29.65-.07,1.28-.07,1.68.68.72,1.34,1.52,2.65,2.29,4Z"/>
    <path class="cls-1" d="M97.21,308.61l5-6a8.11,8.11,0,0,1,.88-1,1.59,1.59,0,0,1,1.55-.14c.48.14.31.64.31,1,0,2.79,0,5.57,0,8.35,0,.79-.26,1-1,1.06s-.92-.47-.91-1.13a32.57,32.57,0,0,0-.36-6c-1.72,2.05-3.44,4.11-5.18,6.16-.41.48-.76,1-1.57,1s-1.06-.17-1-1c0-2.84,0-5.68,0-8.52,0-.64.13-1,.89-1s1.07.24,1.06,1c0,2,0,4,0,6Z"/>
    <path class="cls-1" d="M44.55,307.36c-1,0-2.08,0-3.11,0-1.31-.06-1.21.55-.7,1.38a4,4,0,0,0,5.36,1.08c.69-.41,1.21-.73,1.68.15s-.39,1-.81,1.28a6.12,6.12,0,0,1-7.59-1.2,5.73,5.73,0,0,1,.49-7.22,5.33,5.33,0,0,1,7.15-.21A4.39,4.39,0,0,1,48.1,304c1.3,2.55.86,3.32-1.92,3.32Zm-.94-1.4c.7,0,1.41,0,2.12,0,1.32.08,1.18-.57.71-1.38a3.36,3.36,0,0,0-5.63-.18c-.26.4-.64.86-.36,1.33s.79.19,1.2.21C42.3,306,43,306,43.61,306Z"/>
    <path class="cls-1" d="M235.53,330.58l4.72-5.6c.56-.66,1.06-1.56,2.1-1.17s.46,1.33.49,2c.07,2.18,0,4.37,0,6.55,0,.68.24,1.46-1,1.43s-.88-.86-.89-1.49a28,28,0,0,0-.36-5.22l-4.48,5.28c-.32.37-.62.76-1,1.12a1.49,1.49,0,0,1-1.54.23c-.59-.14-.38-.71-.38-1.11,0-2.57,0-5.13,0-7.7,0-.68,0-1.15.93-1.15s1,.44,1,1.13c0,1.85,0,3.69,0,5.53Z"/>
    <path class="cls-1" d="M86.27,308.16c0,.92,0,1.85,0,2.78,0,1.33-1.25,1.22-1.49.84-.68-1.11-1.13-.29-1.72-.07a5.6,5.6,0,0,1-4,0,2.73,2.73,0,0,1-1.9-2.78A2.7,2.7,0,0,1,79,306.29a10,10,0,0,1,4.21-.34c1.34,0,1.33-.6.91-1.5A2.68,2.68,0,0,0,81.25,303a5.61,5.61,0,0,0-2.48.79c-.57.34-.74-.09-1-.47s-.24-.71.18-.95a6.75,6.75,0,0,1,6-.64c1.86.68,2.35,2.28,2.32,4.11,0,.77,0,1.53,0,2.3Zm-3.76-.84a11.08,11.08,0,0,0-1.65,0c-1,.15-1.85.46-1.74,1.7s.95,1.5,1.95,1.52a4.25,4.25,0,0,0,1.59-.21c1.08-.42,1.93-1.18,1.67-2.45S83,307.59,82.51,307.32Z"/>
    <path class="cls-1" d="M20.08,308.17c0,.93,0,1.86,0,2.78a.92.92,0,0,1-1.48.88c-.67-1.37-1.26-.24-1.86-.07a6.26,6.26,0,0,1-3.71,0A2.82,2.82,0,0,1,11,309a2.69,2.69,0,0,1,2-2.7,10.09,10.09,0,0,1,4.05-.31c1.21,0,1.28-.53,1-1.42a2.41,2.41,0,0,0-2.49-1.5,4.87,4.87,0,0,0-2.8.76c-.53.33-.77.1-1-.33s-.35-.8.17-1.09a6.73,6.73,0,0,1,6.13-.54c1.81.78,2.22,2.41,2.17,4.22,0,.71,0,1.42,0,2.13Zm-3.79-.85a14.87,14.87,0,0,0-1.66,0c-.91.12-1.76.41-1.75,1.53s.78,1.59,1.8,1.66a4.79,4.79,0,0,0,1.61-.11c1.2-.37,2.05-1.17,1.81-2.5S16.74,307.57,16.29,307.32Z"/>
    <path class="cls-1" d="M188,308c0,.92,0,1.85,0,2.78s-.93,1.67-1.59,1-.78-.46-1.36-.17a5.27,5.27,0,0,1-4.14.17,2.69,2.69,0,0,1-2-2.7,2.76,2.76,0,0,1,2-2.82,9.86,9.86,0,0,1,3.89-.28c1.45.09,1.42-.62,1-1.57a2.55,2.55,0,0,0-2.74-1.35,4.89,4.89,0,0,0-2.34.67c-.62.39-1,.26-1.27-.37s.08-.91.53-1.12a6.54,6.54,0,0,1,6.12-.23c1.85,1,1.93,2.75,1.87,4.54C188,307,188,307.5,188,308Zm-5.25,2.56a3.4,3.4,0,0,0,2.65-.81,1.89,1.89,0,0,0,.61-2.06c-.26-.76-1-.31-1.56-.39a6.49,6.49,0,0,0-1.46,0c-1,.09-2.2.23-2.16,1.63S182,310.5,182.74,310.55Z"/>
    <path class="cls-1" d="M150.73,326.63c-2,2.38-3.71,4.35-5.35,6.37a1.67,1.67,0,0,1-1.82.75c-.85-.23-.45-1-.46-1.53,0-2.39,0-4.79,0-7.19,0-.67-.1-1.32.94-1.29s.92.7.92,1.35v5.85l5.32-6.3c.31-.38.56-.8,1.13-.84.74-.05,1.25,0,1.23,1-.05,2.67,0,5.34,0,8,0,.67-.17,1-.92,1s-1-.26-1-1C150.75,330.93,150.73,329,150.73,326.63Z"/>
    <path class="cls-1" d="M147.75,306.74a5.12,5.12,0,0,1-5.39,5.31,5.35,5.35,0,1,1,5.39-5.31Zm-1.9.06a3.51,3.51,0,1,0-3.47,3.62A3.55,3.55,0,0,0,145.85,306.8Z"/>
    <path class="cls-1" d="M132.32,327.13c-1.61,1.91-3.24,3.81-4.82,5.75-.53.64-1.12,1.12-2,.86s-.45-1.12-.46-1.7c0-2.34,0-4.69,0-7,0-.59-.14-1.2.83-1.24s1,.59,1,1.27c0,1.79,0,3.59,0,5.37.66.18.81-.34,1.06-.64,1.52-1.78,3-3.57,4.52-5.39a1.54,1.54,0,0,1,1.6-.56c.82.17.51.87.51,1.35,0,2.51,0,5,0,7.53,0,.72-.12,1.12-1,1.1s-.86-.44-.86-1.05c0-1.83,0-3.66,0-5.49Z"/>
    <path class="cls-1" d="M118.41,306.7c0,1.42,0,2.84,0,4.25,0,.87-.43.94-1.11,1s-.87-.29-.91-1c-.07-1.1.59-2.56-.37-3.2-.76-.51-2.1-.17-3.19-.18-2.28,0-2.28,0-2.28,2.22,0,.43,0,.87,0,1.31,0,.84-.56.76-1.11.79s-.86-.19-.86-.84c0-2.89,0-5.77,0-8.66,0-.68.2-1,.92-1s1,.24,1.07,1c0,1.12-.55,2.68.27,3.25s2.31.09,3.48.25c1.71.23,2.38-.39,2.1-2.1a10.81,10.81,0,0,1,0-1.14c0-.69-.09-1.27.94-1.3s1,.64,1,1.38C118.4,304.08,118.41,305.39,118.41,306.7Z"/>
    <path class="cls-1" d="M213.64,329.45c-.92,0-1.85,0-2.78,0-.36,0-.86-.17-1.05.19s.14.83.38,1.18a3.85,3.85,0,0,0,5,.93c.63-.34,1.15-.69,1.6.13s-.42,1-.83,1.26a5.65,5.65,0,0,1-6.78-.82,5.43,5.43,0,0,1-.45-6.51,5,5,0,0,1,6.11-1.68,4.42,4.42,0,0,1,1.79,1.38c.8,1,1.43,2.31,1,3.47s-1.76.26-2.66.45A6.35,6.35,0,0,1,213.64,329.45Zm-.89-1.36c.7,0,1.41,0,2.11,0,1.12.08,1.2-.38.73-1.23a3.23,3.23,0,0,0-5.24-.47c-.35.41-.76.93-.55,1.43s.87.22,1.33.26S212.21,328.1,212.75,328.09Z"/>
    <path class="cls-1" d="M224.43,311.74a2.44,2.44,0,0,1-3.19-1.14c-.54-.88-1.29-1.62-1.9-2.46a1.9,1.9,0,0,0-2.23-.52c-.71.18-.33.93-.38,1.42a10.82,10.82,0,0,0,0,1.8c.05.74-.15,1.09-1,1.09s-1-.26-1-1c0-2.79,0-5.57,0-8.36,0-.69,0-1.11.93-1.13s1.1.44,1.05,1.21a9.84,9.84,0,0,0,0,1.8c.06.51-.38,1.33.53,1.45.72.1,1.51.26,2.07-.56s1.44-1.78,2.07-2.74a2.09,2.09,0,0,1,2.78-1c-1.08,1.4-2.09,2.79-3.19,4.1a1.08,1.08,0,0,0,0,1.66C222.15,308.74,223.22,310.18,224.43,311.74Z"/>
    <path class="cls-1" d="M189.25,329.45c-1,0-2,0-2.94,0-1.22-.05-1.1.51-.63,1.28a3.81,3.81,0,0,0,4.94,1.08c.65-.34,1.29-.87,1.71.14s-.54,1.1-1.05,1.34a5.65,5.65,0,0,1-6.16-.59,5.17,5.17,0,0,1-1.58-5.34,5,5,0,0,1,9.7.78c.1,1-.15,1.43-1.21,1.34s-1.85,0-2.78,0Zm-.92-1.36h0c.65,0,1.3,0,1.95,0,.36,0,.85.14,1-.26s-.09-.82-.33-1.19a3.24,3.24,0,0,0-5.06-.29c-.35.42-.74.94-.52,1.46s.86.22,1.31.27S187.79,328.09,188.33,328.09Z"/>
    <path class="cls-1" d="M67.35,330c0,.93,0,1.86,0,2.78,0,1.34-1.2,1.21-1.48.8-.57-.81-.9-.4-1.42-.15a4.7,4.7,0,0,1-3.66.18,2.72,2.72,0,0,1-2.09-2.8A2.67,2.67,0,0,1,61,328.23,10.37,10.37,0,0,1,64.4,328c1.25.07,1.28-.61.87-1.42-.72-1.44-2-1.44-3.39-1.17a4.75,4.75,0,0,0-1.38.5c-.52.3-.85.34-1.17-.27s-.09-.89.43-1.14a6.19,6.19,0,0,1,5.82-.22c1.71.88,1.85,2.55,1.77,4.26,0,.49,0,1,0,1.47Zm-3.58-.68a10.89,10.89,0,0,0-1.3,0c-.94.12-2,.28-1.93,1.51s1.09,1.62,2.21,1.59a3.37,3.37,0,0,0,1.4-.32A2,2,0,0,0,65.47,330C65.24,328.74,64.2,329.63,63.77,329.35Z"/>
    <path class="cls-1" d="M165.32,328.77c0,1.31,0,2.62,0,3.93,0,.71-.12,1.11-1,1.1s-.87-.36-.92-1c-.09-1,.54-2.44-.36-3-.73-.48-2-.14-3-.15-2.67,0-2.09-.05-2.17,2.21a11,11,0,0,0,0,1.15c0,.68-.34.8-.92.81s-.95-.1-.95-.79c0-2.78,0-5.56,0-8.35,0-.62.24-.88.87-.88s1,.15,1,.91c0,1.08-.53,2.53.27,3.12s2.1.1,3.17.23c1.64.2,2.47-.28,2.14-2.07a8.05,8.05,0,0,1,0-1.3c0-.62.22-.89.86-.88s1.05.14,1,.9,0,1.42,0,2.13Z"/>
    <path class="cls-1" d="M100.39,328.83c0-1.36,0-2.72,0-4.08,0-.68.18-1,.91-1s.84.41.87,1c.18,3.22.2,3.24,3.42,3.21,2.5,0,2.16.34,2.2-2.13,0-.44,0-.87,0-1.31,0-.69.39-.78,1-.79s.91.17.91.83q0,4.17,0,8.34c0,.63-.26.84-.88.85s-1-.17-1-.91c0-1.06.53-2.54-.32-3.08s-2.22-.07-3.35-.21c-1.6-.21-2.08.38-2,2,0,.69.94,2.22-.87,2.18-1.64,0-.63-1.41-.78-2.13a13.56,13.56,0,0,1,0-2.78Z"/>
    <path class="cls-1" d="M112.21,328.86a5,5,0,0,1,5.16-5.16,5.1,5.1,0,1,1-.06,10.2A4.91,4.91,0,0,1,112.21,328.86Zm5.09,3.39a3.18,3.18,0,0,0,3.33-3.41,3.32,3.32,0,0,0-3.26-3.54,3.43,3.43,0,0,0-3.4,3.46A3.34,3.34,0,0,0,117.3,332.25Z"/>
    <path class="cls-1" d="M24.76,328.85a5,5,0,0,1,5-5.14,5.1,5.1,0,1,1,.08,10.19A5,5,0,0,1,24.76,328.85Zm8.5.16a3.39,3.39,0,0,0-3.28-3.7,3.28,3.28,0,0,0-3.34,3.28c-.08,2.13,1.12,3.55,3.08,3.65A3.25,3.25,0,0,0,33.26,329Z"/>
    <path class="cls-1" d="M196.05,328.78c0-1.36,0-2.73,0-4.09,0-.76.34-.92,1-.92s.78.33.81.91c.07,1.07-.52,2.52.28,3.11s2.09.21,3.18.21c2.43,0,2.09.33,2.13-2.21,0-.38,0-.76,0-1.14-.05-.65.27-.89.87-.89s1,.12,1,.91q0,4.08,0,8.18c0,.73-.31.93-1,.94s-.9-.33-.91-1c0-1,.47-2.47-.2-3s-2.09-.21-3.18-.22c-2.2,0-2.2,0-2.2,2.29,0,.32,0,.65,0,1,.07.74-.3.92-1,.91s-.84-.31-.83-.9C196.06,331.51,196.05,330.15,196.05,328.78Z"/>
    <path class="cls-1" d="M194.37,301.42c1.31,0,2.62,0,3.93,0,.63,0,.86.24.86.87s-.19.84-.83.91c-1,.11-2.31-.58-2.84.44-.42.82-.12,2-.13,3.06,0,1.42-.05,2.84,0,4.25,0,.87-.36,1-1.07,1s-.86-.37-.85-1c0-2.12,0-4.25,0-6.37,0-1.08-.32-1.5-1.38-1.39-.54,0-1.09,0-1.63,0s-.87-.22-.88-.86.2-.9.84-.89c1.31,0,2.61,0,3.92,0Z"/>
    <path class="cls-1" d="M41.31,323.78c.93,0,1.86,0,2.79,0,.6,0,.9.19.9.84s-.35.82-.93.82c-1.2,0-2.4,0-3.6,0-.8,0-1,.29-1,1.05,0,2,0,3.94,0,5.9,0,.66.26,1.45-1,1.43s-.89-.71-.89-1.33c0-2.46,0-4.92,0-7.38,0-1,.21-1.42,1.27-1.32A22.24,22.24,0,0,0,41.31,323.78Z"/>
    <path class="cls-1" d="M129.65,322.57c-1.18-.08-2.22-.33-2.69-1.54-.13-.32-.45-.75,0-1a.8.8,0,0,1,1.09.33c1.12,1.52,2,1.49,3.22,0,.35-.43.73-.52,1.11-.28s.18.69,0,1C131.91,322.35,130.77,322.49,129.65,322.57Z"/>
  </g>
</svg>
