<svg xmlns="http://www.w3.org/2000/svg" viewBox="0 0 345.41 455.79">
  <defs>
  </defs>
  <title>ipi_logo_2</title>
  <g id="Слой_2">
    <g id="Слой_1-2">
      <g>
        <path class="cls-1" d="M173.83,0c2,.78,4.08.6,6.11,1a55.72,55.72,0,0,1,29.85,17.1,28.6,28.6,0,0,0,2.27,2.27c.85.72.9,1.24.05,2.05-4,3.84-7.88,7.8-11.85,11.68s-7.74,7.88-11.63,11.8c-5.31,5.35-10.59,10.75-16,16-11.26,10.82-29.29,13.78-43.53,7.42-6-2.7-11-6.77-15.5-11.48-3.68-3.81-7.42-7.56-11.18-11.3-.71-.69-.9-1.08-.09-1.88,10.14-10.08,20.14-20.28,30.38-30.25,7.06-6.87,15.66-11,25.27-13.2,2.28-.51,4.65-.46,6.89-1.2Z"/>
        <path class="cls-1" d="M62.88,455.79c0-5.53,0-11.06.09-16.58,0-.65-.42-1.61.68-1.81.79-.14,1.63-.24,1.77,1,.08.76.55.32.94.12,3.74-1.91,7-1.45,9.08,1.24a7.24,7.24,0,0,1-.19,9c-2.24,2.62-5.65,2.93-9.18.84a1.89,1.89,0,0,0-.4-.05,32.42,32.42,0,0,0-.13,6.23Zm7.08-7a4.45,4.45,0,0,0,4.44-4.72,4.56,4.56,0,0,0-4.54-4.67,4.5,4.5,0,0,0-4.39,4.78A4.31,4.31,0,0,0,70,448.82Z"/>
        <path class="cls-1" d="M16.83,455.79c.57-4.55.1-9.12.25-13.67,0-1,0-2.07,0-3.1,0-.7-.25-1.54.9-1.66s1.66.34,1.5,1.7c2.09-1.39,4.12-2.26,6.52-1.56a6.52,6.52,0,0,1,3.62,2.38,7.34,7.34,0,0,1-.32,9c-2.26,2.52-5.63,2.74-9.83.43v6.47Zm7.26-7a4.32,4.32,0,0,0,4.38-4.72,4.48,4.48,0,0,0-4.54-4.65,4.6,4.6,0,0,0-4.41,4.81A4.33,4.33,0,0,0,24.09,448.8Z"/>
        <path class="cls-1" d="M297.59,455.79c0-5.52,0-11,0-16.55,0-.7-.45-1.74.88-1.87,1-.09,1.84.06,1.49,1.75,2.1-1.47,4-2.23,6.23-1.68a6.63,6.63,0,0,1,3.87,2.35,7.48,7.48,0,0,1-.21,9c-2.26,2.58-5.58,2.86-9.57.7a28.81,28.81,0,0,0-.08,6.29Zm11.46-11.66a4.55,4.55,0,0,0-4.51-4.7,4.44,4.44,0,0,0-4.43,4.73c0,2.83,1.77,4.66,4.46,4.64A4.41,4.41,0,0,0,309.05,444.13Z"/>
        <path class="cls-1" d="M345.41,450.91c-2.15.32-2.8-.61-2.58-2.71a20,20,0,0,0-.46-6.35c-2.1,2.49-4.19,5-6.3,7.47a6.13,6.13,0,0,1-1.19,1.29,1.4,1.4,0,0,1-2.34-1.19c0-3.55,0-7.09,0-10.63,0-1,.27-1.47,1.36-1.46s1.18.59,1.18,1.43c0,2.5,0,5,0,8.24,2.35-2.77,4.36-5,6.24-7.4,1.09-1.37,2.21-2.51,4.12-2.42Z"/>
        <path class="cls-1" d="M0,437.18a88.58,88.58,0,0,0,10.56.15c1.37,0,2,.26,1.9,1.8-.12,3.38,0,6.77,0,10.16,0,.8.15,1.59-1.16,1.61s-1.35-.71-1.34-1.68c0-2.65,0-5.3,0-7.94,0-1.15-.23-1.66-1.56-1.71-5.84-.2-5.84-.25-5.84,5.56a21.08,21.08,0,0,0,0,3.08c.31,2.08-.4,3-2.56,2.7Z"/>
        <path class="cls-1" d="M0,407.06c2.7.19,2.7.19,2.71,3.9,0,2.23.55,2.69,2.49,2.26a2,2,0,0,0,1.17-.92c.94-1.22,2-2.38,2.82-3.68a2.89,2.89,0,0,1,3.55-1.32,33.54,33.54,0,0,1-4.05,5.4,1.72,1.72,0,0,0,0,2.65c1.53,1.76,2.89,3.67,4.36,5.57-2.48.68-2.47.67-3.79-1-1-1.21-2-2.35-2.9-3.63s-2-1-3-.8-.48,1.33-.63,2.05a3.13,3.13,0,0,0,0,1.1c.43,2.28-.5,3.1-2.72,2.58Z"/>
        <path class="cls-1" d="M44.32,122.57A54.24,54.24,0,0,1,61,86c6.21-6,12.24-12.26,18.44-18.32C83.22,64,87,60.24,90.56,56.39c1-1.1,1.53-1.1,2.61,0,6,6,11.57,12.45,18.2,17.77C123.32,83.72,137,87.52,152.2,85.63c13.19-1.65,24-7.82,33.2-17.25,11.79-12,23.79-23.9,35.71-35.82,1.83-1.83,1.38-1.7,3.13,0C229.62,38,235,43.38,240.38,48.72c.8.79.67,1.21,0,1.91q-12.28,12.24-24.52,24.52c-5,5-10.2,9.87-14.87,15.22a50.9,50.9,0,0,0-10.18,18.15c-4.37,13.71-3.34,27.1,2.54,40.11A48.53,48.53,0,0,0,204,164c12.21,11.58,23.82,23.76,35.83,35.54,1.57,1.54,1.75,1.09-.07,2.88-3.23,3.18-6.54,6.28-9.81,9.42-4.06,3.88-7.7,8.22-11.74,12.15-5.1,5-9.78,10.38-15.34,14.85A53.53,53.53,0,0,1,176.89,250c-.82.13-1.65.14-2.83.23A78.06,78.06,0,0,0,179,243.3a52.93,52.93,0,0,0,7.88-30c-.6-15.14-6.76-27.74-17.58-38.37C152.05,158,135.14,140.77,118,123.74a51.79,51.79,0,0,0-25.62-13.67A50.9,50.9,0,0,0,78,108.87a53.86,53.86,0,0,0-32.31,12.86A2.45,2.45,0,0,1,44.32,122.57Z"/>
        <path class="cls-1" d="M81.44,122.24c11.38.15,21.58,4.91,30,13.85,3.58,3.83,7.29,7.54,11,11.2,13,12.77,25.84,25.78,38.74,38.69,16.79,16.82,16,42.43,0,58.23-1.3,1.28-2.61,2.54-3.85,3.87a1.77,1.77,0,0,1-2,.62,55.73,55.73,0,0,1-19.4-9.69c-1-.76-.45-1.16.11-1.72,3.86-3.85,7.73-7.7,11.56-11.59a6.34,6.34,0,0,0,1.59-7.22,6.64,6.64,0,0,0-11-2.32c-3.9,3.83-7.77,7.69-11.56,11.61-1,1-1.5,1-2.48,0q-5.44-5.67-11.12-11.14c-1-1-.77-1.44,0-2.24q5.66-5.59,11.25-11.25a6.53,6.53,0,0,0,1.37-8.07,6.63,6.63,0,0,0-10.41-1.85c-3.88,3.69-7.6,7.54-11.38,11.34-1.45,1.45-1.43,1.46-2.9,0-3.63-3.64-7.24-7.3-10.93-10.88-.93-.9-.86-1.4,0-2.26q4.88-4.73,9.63-9.61c2.88-3,2.91-7.06.17-9.76s-6.93-2.54-9.88.42c-3.1,3.12-6.24,6.19-9.29,9.35-.9.93-1.48,1-2.42.07-3.7-3.8-7.43-7.57-11.22-11.27-.92-.89-.76-1.37,0-2.16,3.28-3.22,6.49-6.52,9.78-9.75a7,7,0,0,0,1.92-7.88,8.14,8.14,0,0,0-4.76-3.9,7.59,7.59,0,0,0-7.12,2.64c-3,3.17-6.2,6.21-9.27,9.35-.72.74-1.12.86-1.83-.06a55.22,55.22,0,0,1-9.2-17.71c-.16-.55-.42-1.06.14-1.61,4.45-4.4,8.66-9,14.27-12.09A43.39,43.39,0,0,1,81.44,122.24Z"/>
        <path class="cls-1" d="M250.78,59.34a10.22,10.22,0,0,1,.79.65c3.57,3.55,7.1,7.13,10.7,10.65.79.77.47,1.19-.14,1.79-4.89,4.88-9.75,9.78-14.64,14.66a52.23,52.23,0,0,0-14.85,28.53c-2.87,16.35,1,31,11.42,43.94,5.28,6.52,11.69,12,17.55,18,1.12,1.14,1.32,1.76.06,3-3.42,3.23-6.72,6.6-10,10-.75.76-1.15.75-1.89,0-6.74-6.8-13.53-13.56-20.29-20.34-5.65-5.68-11.39-11.27-16.91-17.07A40.55,40.55,0,0,1,213,97.12c5.07-5.2,10.34-10.21,15.47-15.36q10.65-10.68,21.24-21.43C250,60,250.39,59.69,250.78,59.34Z"/>
        <path class="cls-1" d="M294.35,125.26a54,54,0,0,1-16.17,38.64c-1.58,1.58-3.16,3.15-4.73,4.74-.48.48-.83.92-1.53.19-5.9-6.14-12.53-11.61-17.79-18.3-9.14-11.61-11.25-24.65-6.58-38.71a39.35,39.35,0,0,1,9.75-15.48q7.2-7.19,14.38-14.38c.48-.48.83-1.08,1.65-.27,5,5,10,9.84,13.52,16a53.47,53.47,0,0,1,7.23,22.58A48.57,48.57,0,0,1,294.35,125.26Z"/>
        <path class="cls-1" d="M23.08,344.07q5.66-7.89,11.3-15.79c8.45-11.81,16.86-23.65,25.37-35.43,3.12-4.32,6.86-7.68,12.81-7.29,6.44.42,10.19,4.16,10.2,10.64q0,23.81,0,47.6c0,8.93,0,17.86,0,26.79,0,6.39-4.3,10.72-10.64,10.76S61.3,377,61.29,370.51q0-22.25,0-44.5v-2.89c-1-.05-1.12.76-1.46,1.23q-17.18,23.89-34.29,47.82a34.58,34.58,0,0,1-5.33,6.19c-6.08,5.26-15.28,3.52-18.25-3.45a10.64,10.64,0,0,1-.78-4.32q0-37.08,0-74.17c0-4.61,1.86-8.05,6.09-9.87a11,11,0,0,1,12.36,2,9.61,9.61,0,0,1,3,7.58q0,22.8,0,45.61v2.16Z"/>
        <path class="cls-1" d="M284.47,344.06c4.1-5.75,8.19-11.51,12.32-17.25,8.38-11.69,16.69-23.43,25.22-35,4.28-5.81,9.61-7.53,15.45-5.6,3.92,1.29,6,4.08,6.59,8.08a13.2,13.2,0,0,1,.1,2q0,37.1,0,74.19c0,4.4-1.66,7.82-5.65,9.72A11,11,0,0,1,326.43,379a9.54,9.54,0,0,1-3.68-8.14q0-22.92,0-45.84v-2.8c-3,4.16-5.62,7.76-8.21,11.38q-14.46,20.15-28.91,40.27c-3,4.18-6.56,7.61-12.28,7.53-6.36-.09-10.74-4.29-10.76-10.69-.06-14,0-28.05,0-42.08,0-10.92,0-21.85,0-32.77a10,10,0,0,1,8.49-10.1c5.49-1,10.54,1.75,12.36,6.65A12.7,12.7,0,0,1,284,297q0,22.82,0,45.62v1.27Z"/>
        <path class="cls-1" d="M169.65,334q0-18,0-36.1c0-6.77,4.07-11,10.83-11q27-.06,54,0c6.61,0,10.76,4.24,10.76,10.82q0,36.54,0,73.07a10,10,0,0,1-7.6,10.16,11.17,11.17,0,0,1-12.43-4.49c-1.31-2-1.42-4.31-1.42-6.61,0-20.15,0-40.3,0-60.45,0-2-.41-2.6-2.5-2.57-9.37.12-18.75.1-28.12,0-1.78,0-2.17.52-2.16,2.22q.08,30.78,0,61.56c0,4.92-2.54,8.65-6.76,10.1a11.24,11.24,0,0,1-12.6-3.4,10,10,0,0,1-2.08-6.38Q169.67,352.44,169.65,334Z"/>
        <path class="cls-1" d="M136.39,349.54q-7.5,10.93-15,21.88c-2.12,3.13-4.23,6.25-7.68,8.1A14,14,0,0,1,102,380.6c-4.45-1.59-6.48-5.07-6.51-9.58-.1-14.1-.13-28.2,0-42.3.05-5.48,4.7-9.42,10.35-9.27a9.63,9.63,0,0,1,9.72,9.7c0,6.42,0,12.84,0,19.26v2.14l.42.15,6.79-9.9c3.29-4.8,6.52-9.66,9.91-14.4,4.37-6.09,10.78-8.35,17.18-6.25a9.7,9.7,0,0,1,7,9.61q0,21,0,42.08c0,5.46-4.16,9.47-9.78,9.52-5.78.05-10.12-3.87-10.19-9.39-.09-6.72,0-13.43,0-20.15v-2.14Z"/>
        <path class="cls-1" d="M49.27,414.39a6.55,6.55,0,0,1-6,6.8c-1.91.25-2.58,1-2.29,2.8a11.43,11.43,0,0,1,0,1.55c0,.94-.58,1-1.33,1s-1.36,0-1.29-1c0-.58,0-1.19,0-1.77.22-1.64-.42-2.28-2.11-2.53-3.85-.55-6-3.05-6.17-6.63s1.72-6.37,5.42-7c2.65-.44,3.23-1.63,2.85-3.91-.06-.36,0-.74,0-1.1-.07-1,.6-1,1.31-1s1.36,0,1.31,1a8.22,8.22,0,0,1,0,1.11c-.37,2.27.17,3.47,2.83,3.92C47.52,408.25,49.3,410.87,49.27,414.39Zm-10.84,0h0v-3.76c0-.62-.07-1.11-1-1.1a5.31,5.31,0,0,0-4.59,3.27,4.68,4.68,0,0,0,2.23,5.68c2.64,1.41,3.29,1,3.32-1.88Zm2.59-.12h0c0,1.26,0,2.51,0,3.76,0,1,.32,1.28,1.31,1.14a5,5,0,0,0,4.4-4.29,4.51,4.51,0,0,0-3.39-5c-2.13-.69-2.31-.55-2.32,1.77C41,412.46,41,413.34,41,414.23Z"/>
        <path class="cls-1" d="M174.17,404.7c-.36,1.49.15,2.38,2.21,2.75,4.2.77,6.17,3.33,6.06,7.17-.11,3.62-2.34,6.06-6.42,6.67-1.53.22-2,.81-1.87,2.25.08.66,0,1.33,0,2,.06,1-.59,1-1.3,1s-1.34-.08-1.32-1a13.33,13.33,0,0,1,0-1.55c.27-1.81-.35-2.55-2.29-2.79a6.45,6.45,0,0,1-5.91-6.15c-.27-3.75,1.2-6.52,4.72-7.21,3.07-.6,4-1.95,3.47-4.8-.18-1,.21-1.45,1.32-1.46s1.41.49,1.29,1.47C174.12,403.49,174.17,403.94,174.17,404.7Zm0,9.47h0v4c0,.68.19,1.06,1,1a5.21,5.21,0,0,0,4.57-3.59,4.47,4.47,0,0,0-2.55-5.5c-2.57-1.19-3-.89-3.06,1.86C174.13,412.7,174.14,413.44,174.14,414.17Zm-2.59,0c0-1.11-.07-2.22,0-3.32.12-1.47-.57-1.52-1.72-1.25-2.42.57-3.87,2.09-4,4.35a4.78,4.78,0,0,0,3.57,4.95c1.57.51,2.38.21,2.17-1.64A28.94,28.94,0,0,1,171.55,414.21Z"/>
        <path class="cls-1" d="M81.55,413.18v3.76c0,1.07-.33,2.33,1.48,2.23.56,0,.7.42.7.91,0,1.17,0,2.35,0,3.53.05,1-.51,1.05-1.25,1.08s-1.35-.24-1.2-1.11c.37-2.2-.89-2.34-2.58-2.27-2.43.1-4.86.07-7.29,0-1.38,0-2.11.33-1.88,1.85.13.89,0,1.54-1.21,1.56S67,424.13,67,423.19s0-1.91,0-2.87c0-.52,0-1.09.66-1.21,1.93-.31,2.12-1.85,2.28-3.31.25-2.27.43-4.55.51-6.83,0-1.24.29-1.89,1.73-1.83,2.65.1,5.3.07,8,0,1.06,0,1.46.32,1.41,1.39C81.5,410.08,81.55,411.63,81.55,413.18Zm-2.62,1.25c0-5,0-5-4.26-4.94-1.31,0-1.82.38-1.87,1.72a19.28,19.28,0,0,1-.6,5.45c-.83,2.39,0,2.54,2.06,2.48C78.93,419,78.94,419.07,78.93,414.43Z"/>
        <path class="cls-1" d="M205.72,419.89c0,1.79,0,3.45,0,5.11,0,1.06-.2,1.63-1.46,1.6S203,425.92,203,425c0-5.31,0-10.63,0-15.94,0-.78-.42-1.8,1.07-1.95s1.46.75,1.49,1.74c4.54-2.56,8.06-2.27,10.54.73a7.88,7.88,0,0,1,.13,9.28C214,421.85,210.33,422.25,205.72,419.89Zm-.05-5.59a4.76,4.76,0,0,0,4.75,5,5,5,0,0,0,.07-10A4.78,4.78,0,0,0,205.67,414.3Z"/>
        <path class="cls-1" d="M89.58,419.84c0,1.82,0,3.58,0,5.34,0,.82,0,1.41-1.15,1.41s-1.43-.3-1.42-1.38c0-5.61,0-11.21,0-16.81,0-.62,0-1.26.87-1.21.6,0,1.49-.31,1.57.69s.32,1,1.15.5c3.54-2.12,7.28-1.57,9.52,1.29a7.68,7.68,0,0,1-.37,9.77c-2.36,2.53-6.29,2.72-9.65.47A3,3,0,0,0,89.58,419.84Zm0-5.56a4.76,4.76,0,1,0,9.51,0,4.76,4.76,0,1,0-9.51,0Z"/>
        <path class="cls-1" d="M246,437.59c-1.17,2.4-3.78,4.21-3.61,6.41s2.31,4,3.57,6a4.22,4.22,0,0,1,.24.67,2.6,2.6,0,0,1-3.61-1.35c-.63-1.16-1.49-2.19-2.17-3.33s-1.67-.88-2.55-.71-.44,1.1-.49,1.68a19.67,19.67,0,0,0,0,2.66c.05.91-.24,1.31-1.24,1.31s-1.3-.42-1.26-1.32a23.59,23.59,0,0,0,0-2.66c-.05-.59.39-1.5-.53-1.67s-1.91-.34-2.53.76-1.39,1.93-1.88,3c-.79,1.68-2,2.25-4,1.67,1.15-1.74,2.2-3.48,3.4-5.09a2.37,2.37,0,0,0,0-3.31c-1.11-1.43-2-3-3-4.66,1.64-.54,2.64-.21,3.36,1.26.58,1.18,1.47,2.21,2.12,3.36s1.5.86,2.34.79c1.16-.11.66-1.11.74-1.75s0-1.19,0-1.77c.09-.9-.52-2.18,1.3-2.15s1.08,1.21,1.17,2c.07.66-.05,1.34,0,2s-.45,1.49.57,1.61,1.91.42,2.56-.71,1.55-2.33,2.23-3.55S244.45,437.08,246,437.59Z"/>
        <path class="cls-1" d="M229.64,416.6c1.69-2.8,3.36-5.39,4.86-8.07.59-1.07,1.25-1.59,2.43-1.33,1.38.29.75,1.42.77,2.18.06,3.46,0,6.93,0,10.4,0,.85.12,1.59-1.18,1.57s-1.28-.63-1.27-1.54a46.53,46.53,0,0,0-.41-7.83q-2,3.24-3.94,6.47c-1.11,1.83-1.62,1.85-2.71.06-1.27-2.07-2.5-4.15-3.86-6.41-1,1.25-.42,2.52-.52,3.67a34.31,34.31,0,0,0,0,4.42c0,1.1-.57,1.13-1.39,1.16s-1-.45-1-1.23c0-3.76,0-7.53,0-11.29,0-.58-.39-1.48.63-1.6s1.88-.33,2.5.82c1.27,2.33,2.65,4.6,4,6.89C228.84,415.44,229.18,415.91,229.64,416.6Z"/>
        <path class="cls-1" d="M308.44,417.39c2.86-3.38,5.31-6.17,7.64-9.07a2.45,2.45,0,0,1,2.63-1.12c1.34.32.67,1.47.68,2.22.08,3.39,0,6.78,0,10.17,0,1,.12,1.81-1.4,1.79s-1.31-1-1.31-1.89c0-2.49,0-5,0-7.83-2.1,1.67-3.31,3.67-4.87,5.35-1.1,1.18-2.09,2.47-3.09,3.74a2.19,2.19,0,0,1-2.44.51c-.93-.19-.54-1.09-.54-1.68,0-3.61,0-7.22,0-10.82,0-1.08.21-1.62,1.44-1.61s1.27.66,1.26,1.55C308.43,411.37,308.44,414.05,308.44,417.39Z"/>
        <path class="cls-1" d="M103,446.3c1.58-2.65,3-5,4.43-7.46.56-1,1.16-1.71,2.4-1.45s.77,1.41.79,2.16c.07,3.1.06,6.2,0,9.29,0,.84.48,2.05-1.18,2s-1-1.16-1-1.91c-.06-2.17,0-4.35,0-6.53l-.61-.21c-1.21,1.94-2.41,3.87-3.63,5.8s-1.51,1.83-2.65,0a49.76,49.76,0,0,0-4.09-6c0,2.47,0,4.93,0,7.4,0,.89,0,1.57-1.24,1.53s-1.1-.64-1.09-1.45c0-3.46,0-6.93,0-10.39,0-.59-.35-1.46.64-1.62s1.86-.22,2.46.89c1.3,2.4,2.7,4.73,4.07,7.09C102.41,445.65,102.61,445.86,103,446.3Z"/>
        <path class="cls-1" d="M274.54,416.85c2.37-2.81,4.78-5.59,7.09-8.45.78-1,1.66-1.59,2.81-1.14s.52,1.56.54,2.37c.06,3.39,0,6.79,0,10.18,0,1.13-.27,1.54-1.46,1.56s-1.16-.76-1.15-1.58a42.65,42.65,0,0,0-.51-8l-6.19,7.35c-.48.57-1,1.12-1.43,1.69-.62.78-1.49.61-2.25.49-1-.17-.56-1.07-.57-1.64,0-3.62,0-7.24,0-10.85,0-.83-.1-1.61,1.17-1.65s1.44.61,1.43,1.64c0,2.63,0,5.26,0,7.89Z"/>
        <path class="cls-1" d="M341.89,411.79c-2.32,2.74-4.7,5.42-6.92,8.23-.84,1.06-1.74,1.67-3,1.22s-.49-1.55-.51-2.32c-.08-3.39,0-6.78,0-10.17,0-.86-.06-1.57,1.2-1.6s1.35.69,1.34,1.66q0,3,0,6c0,.54-.23,1.29.55,1.49.59.16.84-.46,1.16-.83,2-2.35,4-4.69,6-7.09.72-.89,1.5-1.48,2.63-1.11s.6,1.5.62,2.26c.07,3.47,0,6.93.05,10.4,0,.94-.11,1.49-1.28,1.48s-1.35-.49-1.33-1.47c0-2.63,0-5.27,0-7.9Zm-7.55,4.77-.13-.16-.16.14.21.16Z"/>
        <path class="cls-1" d="M123,446.42c1.61-2.68,3.09-5.12,4.53-7.57.55-.94,1.11-1.8,2.38-1.47s.7,1.47.71,2.22c.08,3.24.05,6.49,0,9.74,0,.69.21,1.51-1,1.54s-1.24-.67-1.24-1.56c0-2.35,0-4.7,0-7.32-1.45.87-1.76,2.3-2.52,3.36-.6.84-1.06,1.77-1.61,2.64-1.19,1.88-1.57,1.89-2.69,0s-2.33-3.9-3.65-6.12c-.76,1.3-.39,2.46-.44,3.54s0,2.36,0,3.54c0,.77.46,1.86-1.08,1.89s-1.2-.95-1.2-1.8c0-3.32,0-6.64,0-10,0-.66-.35-1.61.8-1.73.88-.1,1.73-.1,2.26.9,1,1.82,2.06,3.58,3.09,5.37C121.86,444.47,122.35,445.28,123,446.42Z"/>
        <path class="cls-1" d="M131.11,416.87l6.8-8.07a11.35,11.35,0,0,1,1.18-1.31,2.16,2.16,0,0,1,2.1-.19c.64.19.42.86.43,1.34,0,3.76,0,7.52,0,11.28,0,1.06-.35,1.39-1.4,1.42-1.22,0-1.24-.62-1.23-1.52a43.33,43.33,0,0,0-.48-8.09c-2.33,2.77-4.65,5.55-7,8.31-.56.66-1,1.38-2.13,1.33S128,421.14,128,420c.06-3.83,0-7.67,0-11.5,0-.87.17-1.37,1.2-1.38s1.45.32,1.43,1.39c0,2.71,0,5.42,0,8.12Z"/>
        <path class="cls-1" d="M60,415.19c-1.4,0-2.8.05-4.2,0-1.77-.07-1.63.75-.94,1.87a5.35,5.35,0,0,0,7.25,1.46c.92-.55,1.63-1,2.27.21s-.54,1.35-1.11,1.72c-3.07,2-8.06,1.18-10.24-1.63a7.75,7.75,0,0,1,.66-9.75,7.2,7.2,0,0,1,9.66-.27,5.87,5.87,0,0,1,1.45,1.91c1.77,3.45,1.17,4.49-2.58,4.49Zm-1.26-1.9c.95,0,1.91-.05,2.86,0,1.78.12,1.6-.76,1-1.85a4.55,4.55,0,0,0-7.61-.24c-.36.53-.87,1.15-.49,1.79s1.07.26,1.62.29C56.94,413.33,57.83,413.3,58.71,413.29Z"/>
        <path class="cls-1" d="M318,446.55l6.39-7.56c.75-.89,1.43-2.1,2.84-1.58s.62,1.79.65,2.7c.1,2.95.05,5.9.05,8.85,0,.92.32,2-1.29,1.93s-1.18-1.16-1.19-2a37.63,37.63,0,0,0-.5-7l-6,7.12c-.43.51-.84,1-1.29,1.51a2,2,0,0,1-2.08.32c-.8-.19-.52-1-.53-1.5,0-3.47,0-6.93,0-10.4,0-.91.05-1.56,1.25-1.56s1.3.6,1.29,1.54c0,2.49,0,5,0,7.47Z"/>
        <path class="cls-1" d="M116.34,416.26c0,1.26,0,2.51,0,3.76.06,1.8-1.69,1.65-2,1.14-.92-1.51-1.53-.39-2.33-.1a7.56,7.56,0,0,1-5.42,0,3.91,3.91,0,0,1-.07-7.31c1.86-.75,3.8-.52,5.69-.46s1.8-.81,1.23-2c-.77-1.65-2.25-2-3.89-1.92a7.23,7.23,0,0,0-3.34,1.07c-.78.45-1-.12-1.34-.64s-.32-1,.24-1.29a9.11,9.11,0,0,1,8.08-.86c2.52.92,3.17,3.08,3.13,5.55,0,1,0,2.07,0,3.1Zm-5.09-1.13a14.63,14.63,0,0,0-2.23,0c-1.29.2-2.5.62-2.34,2.3s1.28,2,2.63,2a5.54,5.54,0,0,0,2.15-.28c1.46-.57,2.61-1.59,2.26-3.3S111.87,415.49,111.25,415.13Z"/>
        <path class="cls-1" d="M26.93,416.28c0,1.25-.06,2.51,0,3.76a1.24,1.24,0,0,1-2,1.18c-.9-1.84-1.7-.32-2.51-.09a8.39,8.39,0,0,1-5,0,3.77,3.77,0,0,1-2.81-3.81,3.64,3.64,0,0,1,2.66-3.66,14.06,14.06,0,0,1,5.47-.41c1.63.05,1.72-.72,1.29-1.92-.57-1.56-1.88-2-3.35-2a6.67,6.67,0,0,0-3.79,1c-.72.45-1,.13-1.4-.44s-.48-1.08.23-1.47a9,9,0,0,1,8.27-.73c2.45,1,3,3.25,2.94,5.69,0,1,0,1.92,0,2.88Zm-5.12-1.14a20.58,20.58,0,0,0-2.25,0c-1.22.16-2.37.55-2.36,2.06s1.05,2.16,2.44,2.24a6.23,6.23,0,0,0,2.16-.14c1.62-.5,2.77-1.59,2.45-3.38S22.41,415.48,21.81,415.14Z"/>
        <path class="cls-1" d="M253.74,416c0,1.26,0,2.51,0,3.76,0,1.43-1.26,2.26-2.14,1.31s-1.06-.62-1.84-.23a7.14,7.14,0,0,1-5.59.24,3.64,3.64,0,0,1-2.7-3.65,3.71,3.71,0,0,1,2.75-3.81,13.38,13.38,0,0,1,5.26-.38c2,.11,1.91-.84,1.33-2.12-.72-1.57-2.16-1.89-3.71-1.82a6.57,6.57,0,0,0-3.15.9c-.84.52-1.29.35-1.72-.5s.11-1.22.72-1.52c2.71-1.29,5.5-1.74,8.27-.3,2.49,1.3,2.61,3.7,2.53,6.14C253.73,414.71,253.74,415.37,253.74,416Zm-7.08,3.46a4.59,4.59,0,0,0,3.58-1.08,2.6,2.6,0,0,0,.82-2.79c-.36-1-1.39-.42-2.11-.52a8.65,8.65,0,0,0-2,0c-1.43.13-3,.32-2.93,2.21S245.71,419.43,246.66,419.49Z"/>
        <path class="cls-1" d="M203.41,441.22c-2.71,3.22-5,5.87-7.22,8.61a2.28,2.28,0,0,1-2.47,1c-1.14-.31-.61-1.35-.62-2.06-.06-3.24,0-6.48,0-9.72,0-.9-.14-1.77,1.27-1.74s1.24.94,1.24,1.83V447c2.69-3.19,4.94-5.85,7.18-8.52.42-.5.76-1.07,1.53-1.12,1-.07,1.69,0,1.66,1.33-.07,3.6,0,7.21,0,10.82,0,.91-.24,1.35-1.24,1.34s-1.31-.36-1.3-1.29C203.43,447,203.41,444.46,203.41,441.22Z"/>
        <path class="cls-1" d="M199.38,414.35c0,4.24-2.95,7.13-7.28,7.17a7.22,7.22,0,1,1,7.28-7.17Zm-2.57.08a4.74,4.74,0,1,0-9.47-.11,4.84,4.84,0,0,0,4.8,5A4.77,4.77,0,0,0,196.81,414.43Z"/>
        <path class="cls-1" d="M178.55,441.89c-2.18,2.59-4.38,5.15-6.52,7.77-.72.87-1.51,1.52-2.63,1.16s-.6-1.52-.62-2.29c-.07-3.17,0-6.34,0-9.52,0-.79-.19-1.61,1.12-1.67s1.31.79,1.31,1.71c0,2.43,0,4.86,0,7.26.89.24,1.09-.45,1.43-.86,2-2.41,4.11-4.83,6.11-7.29a2.06,2.06,0,0,1,2.16-.75c1.1.22.68,1.17.69,1.82,0,3.39,0,6.78,0,10.17,0,1-.16,1.51-1.3,1.49s-1.17-.6-1.16-1.42c0-2.47,0-4.94,0-7.41Z"/>
        <path class="cls-1" d="M159.75,414.3c0,1.91-.05,3.83,0,5.74,0,1.18-.58,1.27-1.5,1.31s-1.18-.39-1.24-1.3c-.09-1.48.81-3.46-.49-4.32-1-.69-2.85-.23-4.31-.24-3.08,0-3.08,0-3.08,3,0,.59,0,1.18,0,1.77.05,1.13-.75,1-1.49,1.07s-1.18-.26-1.17-1.13q0-5.85,0-11.71c0-.92.27-1.32,1.25-1.33s1.42.33,1.43,1.39c0,1.52-.73,3.62.37,4.39s3.12.13,4.7.34c2.31.31,3.22-.53,2.84-2.83a11.44,11.44,0,0,1,0-1.55c-.05-.92-.12-1.72,1.26-1.75s1.42.86,1.42,1.86C159.74,410.76,159.75,412.53,159.75,414.3Z"/>
        <path class="cls-1" d="M288.39,445c-1.25,0-2.5,0-3.75,0-.49,0-1.16-.23-1.42.26s.19,1.11.51,1.59c1.3,2,4.33,2.57,6.74,1.26.86-.47,1.55-.94,2.16.17s-.56,1.35-1.12,1.7a7.63,7.63,0,0,1-9.16-1.11,7.34,7.34,0,0,1-.61-8.79,6.78,6.78,0,0,1,8.26-2.27,6.07,6.07,0,0,1,2.42,1.86c1.07,1.39,1.93,3.12,1.33,4.7s-2.37.35-3.59.6A8.71,8.71,0,0,1,288.39,445Zm-1.2-1.83c.95,0,1.9-.05,2.85,0,1.51.1,1.62-.52,1-1.67a4.36,4.36,0,0,0-7.08-.64c-.48.57-1,1.26-.75,1.94s1.18.3,1.8.34S286.46,443.2,287.19,443.19Z"/>
        <path class="cls-1" d="M303,421.1a3.28,3.28,0,0,1-4.31-1.54c-.73-1.18-1.75-2.18-2.57-3.32s-2-.94-3-.7-.44,1.25-.51,1.92a15.17,15.17,0,0,0,0,2.43c.06,1-.21,1.47-1.34,1.47s-1.37-.35-1.36-1.41c.06-3.76,0-7.52,0-11.28,0-.93.07-1.51,1.26-1.53s1.48.59,1.42,1.63a13.15,13.15,0,0,0,0,2.43c.08.7-.52,1.8.71,2,1,.14,2,.35,2.79-.75.88-1.28,1.95-2.42,2.8-3.71a2.85,2.85,0,0,1,3.76-1.3c-1.46,1.9-2.82,3.77-4.31,5.54a1.47,1.47,0,0,0,0,2.25C299.89,417.05,301.33,419,303,421.1Z"/>
        <path class="cls-1" d="M255.44,445c-1.32,0-2.65,0-4,0-1.65-.06-1.49.69-.85,1.73,1.22,2,4.29,2.74,6.68,1.47.88-.47,1.74-1.18,2.3.18.49,1.2-.73,1.48-1.42,1.81a7.63,7.63,0,0,1-8.32-.79,7,7,0,0,1-2.13-7.22,6.69,6.69,0,0,1,13.1,1.06c.14,1.33-.19,1.92-1.63,1.8-1.25-.1-2.5,0-3.76,0Zm-1.24-1.83h0c.88,0,1.76,0,2.63,0,.5,0,1.16.19,1.4-.35s-.13-1.12-.44-1.61a4.38,4.38,0,0,0-6.84-.39c-.47.57-1,1.27-.71,2s1.16.29,1.77.35S253.47,443.19,254.2,443.19Z"/>
        <path class="cls-1" d="M90.78,445.81c0,1.25,0,2.51,0,3.76,0,1.8-1.62,1.63-2,1.08-.77-1.09-1.22-.55-1.92-.21a6.4,6.4,0,0,1-5,.25,3.67,3.67,0,0,1-2.81-3.78c.05-2,1.25-3,3.08-3.54a14.59,14.59,0,0,1,4.61-.28c1.69.1,1.73-.82,1.18-1.91-1-1.95-2.76-1.95-4.58-1.58a6.37,6.37,0,0,0-1.86.67c-.7.4-1.15.46-1.58-.36s-.12-1.21.58-1.55c2.58-1.24,5.24-1.66,7.86-.29,2.3,1.2,2.49,3.45,2.38,5.75,0,.66,0,1.33,0,2Zm-4.84-.92a16.5,16.5,0,0,0-1.75,0c-1.27.16-2.68.39-2.61,2s1.47,2.19,3,2.15a4.91,4.91,0,0,0,1.89-.42,2.65,2.65,0,0,0,1.78-3C87.93,444.07,86.53,445.27,85.94,444.89Z"/>
        <path class="cls-1" d="M223.12,444.1c0,1.77,0,3.54,0,5.31,0,1-.16,1.51-1.32,1.49s-1.18-.48-1.25-1.35c-.11-1.41.74-3.3-.48-4.1-1-.65-2.71-.2-4.11-.2-3.59,0-2.81-.08-2.93,3,0,.52,0,1,0,1.55.06.92-.46,1.09-1.24,1.09s-1.28-.13-1.28-1.06q0-5.64,0-11.28c0-.84.32-1.19,1.18-1.18s1.34.2,1.37,1.23c0,1.44-.72,3.4.36,4.2s2.84.14,4.29.32c2.21.27,3.33-.38,2.89-2.8a11.46,11.46,0,0,1,0-1.76c0-.84.31-1.2,1.17-1.19s1.42.19,1.36,1.23,0,1.91,0,2.87Z"/>
        <path class="cls-1" d="M135.42,444.2c0-1.85,0-3.69,0-5.53,0-.92.24-1.31,1.23-1.33s1.13.56,1.17,1.39c.25,4.35.27,4.37,4.61,4.34,3.38,0,2.93.46,3-2.88,0-.59,0-1.18,0-1.77,0-.94.52-1.05,1.28-1.06s1.24.22,1.24,1.11c0,3.76,0,7.51,0,11.27,0,.85-.34,1.14-1.19,1.15s-1.32-.23-1.36-1.23c-.05-1.44.72-3.43-.42-4.16s-3-.1-4.53-.29c-2.16-.27-2.82.51-2.72,2.66.05.94,1.28,3-1.17,2.95-2.21-.06-.85-1.9-1.06-2.88a18.64,18.64,0,0,1-.06-3.74Z"/>
        <path class="cls-1" d="M151.38,444.23a6.68,6.68,0,0,1,7-7,6.89,6.89,0,1,1-.08,13.77A6.65,6.65,0,0,1,151.38,444.23Zm6.87,4.59c2.66,0,4.46-1.81,4.5-4.62a4.49,4.49,0,0,0-4.41-4.78,4.65,4.65,0,0,0-4.59,4.67A4.54,4.54,0,0,0,158.25,448.82Z"/>
        <path class="cls-1" d="M33.25,444.21A6.72,6.72,0,0,1,40,437.27,6.89,6.89,0,1,1,40.15,451,6.74,6.74,0,0,1,33.25,444.21Zm11.48.22a4.58,4.58,0,0,0-4.43-5,4.42,4.42,0,0,0-4.51,4.43c-.11,2.87,1.51,4.8,4.15,4.93A4.4,4.4,0,0,0,44.73,444.43Z"/>
        <path class="cls-1" d="M264.63,444.12c0-1.84,0-3.69,0-5.53,0-1,.45-1.23,1.34-1.24s1.06.46,1.1,1.23c.09,1.45-.71,3.41.38,4.21s2.82.28,4.29.27c3.29,0,2.83.46,2.88-3,0-.52,0-1,0-1.55-.07-.87.37-1.19,1.17-1.2s1.39.16,1.38,1.22c0,3.69,0,7.38,0,11.07,0,1-.42,1.24-1.34,1.26s-1.22-.45-1.23-1.35c0-1.39.64-3.35-.27-4s-2.82-.28-4.29-.29c-3,0-3,0-3,3.09,0,.44,0,.89,0,1.33.09,1-.41,1.24-1.32,1.23s-1.12-.43-1.11-1.23C264.65,447.81,264.63,446,264.63,444.12Z"/>
        <path class="cls-1" d="M262.36,407.17c1.77,0,3.54,0,5.3,0,.86,0,1.17.32,1.17,1.16s-.26,1.14-1.12,1.23c-1.31.15-3.12-.78-3.83.6-.58,1.11-.17,2.73-.18,4.13,0,1.91-.07,3.83,0,5.74.06,1.17-.49,1.3-1.44,1.34s-1.16-.5-1.15-1.36c.05-2.87-.05-5.75.05-8.61.06-1.46-.43-2-1.86-1.88-.73.07-1.47,0-2.21,0s-1.17-.3-1.18-1.16.27-1.22,1.13-1.2c1.77,0,3.54,0,5.3,0Z"/>
        <path class="cls-1" d="M55.61,437.37c1.25,0,2.51,0,3.76,0,.81,0,1.22.26,1.22,1.14s-.48,1.12-1.25,1.11c-1.63,0-3.25,0-4.87,0-1.08,0-1.4.39-1.38,1.42.06,2.65,0,5.31,0,8,0,.89.34,2-1.29,1.93-1.48,0-1.2-1-1.21-1.8,0-3.32,0-6.64,0-10,0-1.29.28-1.93,1.71-1.79A30.63,30.63,0,0,0,55.61,437.37Z"/>
        <path class="cls-1" d="M174.93,435.73c-1.59-.1-3-.45-3.63-2.07-.17-.44-.6-1,.06-1.35a1.07,1.07,0,0,1,1.47.46c1.52,2,2.66,2,4.35-.06.47-.58,1-.71,1.49-.38s.25.94.05,1.4C178,435.44,176.45,435.62,174.93,435.73Z"/>
      </g>
    </g>
  </g>
</svg>
