<svg xmlns="http://www.w3.org/2000/svg" viewBox="0 0 250.04 250.22">
  <defs>
  </defs>
  <title>ipi_logo_1</title>
  <g id="Слой_2">
    <g id="Слой_1-2">
      <g>
        <path class="cls-1" d="M129.51,0c2,.78,4.08.6,6.11,1a55.75,55.75,0,0,1,29.85,17.1,27,27,0,0,0,2.27,2.27c.85.72.89,1.24,0,2.05-4,3.84-7.89,7.8-11.85,11.68S148.2,42,144.31,45.92c-5.32,5.35-10.6,10.75-16,16C117,72.71,99,75.67,84.75,69.31A49.84,49.84,0,0,1,69.24,57.83c-3.67-3.81-7.42-7.56-11.18-11.3-.7-.69-.89-1.08-.08-1.88C68.11,34.57,78.12,24.37,88.36,14.4c7.06-6.87,15.65-11,25.26-13.2,2.29-.51,4.66-.46,6.89-1.2Z"/>
        <path class="cls-1" d="M0,122.57a54.7,54.7,0,0,1,3.79-17.44A54.1,54.1,0,0,1,16.7,86c6.2-6,12.24-12.26,18.43-18.32,3.77-3.69,7.49-7.44,11.1-11.29,1-1.1,1.53-1.1,2.61,0,6,6,11.57,12.45,18.2,17.77,12,9.58,25.62,13.38,40.84,11.49,13.19-1.65,24-7.82,33.2-17.25,11.78-12,23.79-23.9,35.71-35.82,1.83-1.83,1.38-1.7,3.13,0,5.38,5.37,10.73,10.77,16.14,16.11.8.79.66,1.21,0,1.91q-12.28,12.24-24.53,24.52c-5,5-10.2,9.87-14.86,15.22a51.07,51.07,0,0,0-10.19,18.15c-4.36,13.71-3.34,27.1,2.54,40.11A48.7,48.7,0,0,0,159.63,164c12.22,11.58,23.83,23.76,35.84,35.54,1.57,1.54,1.74,1.09-.07,2.88-3.23,3.18-6.54,6.28-9.81,9.42-4.06,3.88-7.7,8.22-11.74,12.15-5.1,5-9.78,10.38-15.34,14.85A53.57,53.57,0,0,1,132.57,250c-.82.13-1.66.14-2.83.23a78.06,78.06,0,0,0,4.92-6.92,52.92,52.92,0,0,0,7.87-30c-.6-15.14-6.75-27.74-17.58-38.37C107.73,158,90.82,140.77,73.71,123.74a51.83,51.83,0,0,0-25.62-13.67,50.9,50.9,0,0,0-14.44-1.2A53.92,53.92,0,0,0,1.33,121.73,2.38,2.38,0,0,1,0,122.57Z"/>
        <path class="cls-1" d="M37.11,122.24c11.39.15,21.59,4.91,30,13.85,3.58,3.83,7.3,7.54,11,11.2,13,12.77,25.84,25.78,38.73,38.69,16.8,16.82,16,42.43,0,58.23-1.29,1.28-2.6,2.54-3.85,3.87a1.76,1.76,0,0,1-2,.62A55.73,55.73,0,0,1,91.62,239c-1-.76-.46-1.16.1-1.72,3.87-3.85,7.74-7.7,11.57-11.59a6.36,6.36,0,0,0,1.59-7.22,6.65,6.65,0,0,0-11.06-2.32c-3.89,3.83-7.76,7.69-11.56,11.61-1,1-1.5,1-2.47,0q-5.46-5.67-11.12-11.14c-1-1-.78-1.44,0-2.24Q74.37,208.76,80,203.1A6.51,6.51,0,0,0,81.32,195a6.62,6.62,0,0,0-10.4-1.85c-3.88,3.69-7.6,7.54-11.38,11.34-1.45,1.45-1.43,1.46-2.9,0-3.64-3.64-7.24-7.3-10.93-10.88-.93-.9-.86-1.4,0-2.26q4.89-4.73,9.63-9.61c2.89-3,2.92-7.06.18-9.76s-6.94-2.54-9.88.42c-3.1,3.12-6.24,6.19-9.29,9.35-.9.93-1.49,1-2.43.07-3.69-3.8-7.42-7.57-11.22-11.27-.91-.89-.75-1.37.05-2.16,3.28-3.22,6.49-6.52,9.77-9.75a7,7,0,0,0,1.93-7.88,8.13,8.13,0,0,0-4.77-3.9,7.58,7.58,0,0,0-7.11,2.64c-3,3.17-6.21,6.21-9.27,9.35-.73.74-1.12.86-1.83-.06a55.22,55.22,0,0,1-9.2-17.71c-.16-.55-.42-1.06.13-1.61,4.45-4.4,8.67-9,14.28-12.09A43.35,43.35,0,0,1,37.11,122.24Z"/>
        <path class="cls-1" d="M206.46,59.34c.3.25.57.43.79.65,3.56,3.55,7.1,7.13,10.7,10.65.79.77.47,1.19-.14,1.79q-7.34,7.32-14.65,14.66a52.21,52.21,0,0,0-14.84,28.53c-2.87,16.35,1,31,11.42,43.94,5.28,6.52,11.68,12,17.55,18,1.12,1.14,1.32,1.76.05,3-3.42,3.23-6.72,6.6-10,10-.74.76-1.14.75-1.88,0-6.74-6.8-13.53-13.56-20.29-20.34-5.65-5.68-11.4-11.27-16.92-17.07a40.56,40.56,0,0,1,.41-55.94c5.08-5.2,10.34-10.21,15.48-15.36q10.65-10.68,21.24-21.43C205.7,60,206.07,59.69,206.46,59.34Z"/>
        <path class="cls-1" d="M250,125.26c-.24,15-5.54,28-16.18,38.64-1.57,1.58-3.16,3.15-4.72,4.74-.48.48-.83.92-1.53.19-5.9-6.14-12.53-11.61-17.8-18.3-9.13-11.61-11.24-24.65-6.57-38.71A39.24,39.24,0,0,1,213,96.34L227.36,82c.48-.48.83-1.08,1.64-.27,5,5,10,9.84,13.53,16a53.46,53.46,0,0,1,7.22,22.58A48.57,48.57,0,0,1,250,125.26Z"/>
      </g>
    </g>
  </g>
</svg>
